# xmcd
#
# Track frame offsets: 
#        150
#        17048
#        31310
#        49805
#        63248
#        78620
#        98288
#        110858
#        125728
#        145695
#        166235
#        181790
#
# Disc length: 2623 seconds
#
# Revision: 4
# Processed by: cddbd v1.5.2PL0 Copyright (c) Steve Scherf et al.
# Submitted via: ExactAudioCopyFreeDBPlugin 1.0
#
DISCID=980a3d0c
DTITLE=Various Artist - Didn't It Blow Your Mind!:  Soul Hits of the 
DTITLE='70s [Rhino series]
DYEAR=1991
DGENRE=SMB
TTITLE0=The Honey Cone - One Monkey Don't Stop No Show
TTITLE1=B.B. King - Ain't Nobody Home
TTITLE2=Dennis Coffey and The Detroit Guitar Band - Scorpio
TTITLE3=Freda Payne - You Brought the Joy
TTITLE4=Joe Simon - Drowing in the Sea of Love
TTITLE5=Jerry Butler and Brenda Lee Eager - Ain't Understanding Mellow
TTITLE6=Betty Wright - Clean Up Woman
TTITLE7=Bobby Womack - That's the Way I Feel About Cha
TTITLE8=The Chakachas - Jungle Feaver
TTITLE9=The Dramatics - In the Rain
TTITLE10=Malo - Suavecito
TTITLE11=The Chi-Lites - Oh Girl
EXTD=
EXTT0=
EXTT1=
EXTT2=
EXTT3=
EXTT4=
EXTT5=
EXTT6=
EXTT7=
EXTT8=
EXTT9=
EXTT10=
EXTT11=
PLAYORDER=
